<?xml version="1.0" encoding="utf-8"?>
<!-- Generator: Adobe Illustrator 24.2.0, SVG Export Plug-In . SVG Version: 6.00 Build 0)  -->
<svg version="1.1" id="Layer_1" xmlns="http://www.w3.org/2000/svg" xmlns:xlink="http://www.w3.org/1999/xlink" x="0px" y="0px"
	 viewBox="0 0 200 100" style="enable-background:new 0 0 200 100;" xml:space="preserve">
<style type="text/css">
	.st0{fill:url(#SVGID_1_);}
	.st1{fill:url(#SVGID_2_);}
	.st2{fill:url(#SVGID_3_);}
	.st3{fill:url(#SVGID_4_);}
	.st4{fill:url(#SVGID_5_);}
	.st5{fill:url(#SVGID_6_);}
	.st6{fill:url(#SVGID_7_);}
	.st7{fill:url(#SVGID_8_);}
	.st8{fill:url(#SVGID_9_);}
	.st9{fill:url(#SVGID_10_);}
	.st10{fill:url(#SVGID_11_);}
	.st11{fill:url(#SVGID_12_);}
	.st12{fill:url(#SVGID_13_);}
	.st13{fill:url(#SVGID_14_);}
	.st14{fill:url(#SVGID_15_);}
	.st15{fill:url(#SVGID_16_);}
	.st16{fill:url(#SVGID_17_);}
	.st17{fill:url(#SVGID_18_);}
	.st18{fill:url(#SVGID_19_);}
	.st19{fill:url(#SVGID_20_);}
	.st20{fill:url(#SVGID_21_);}
	.st21{fill:url(#SVGID_22_);}
	.st22{fill:url(#SVGID_23_);}
	.st23{fill:url(#SVGID_24_);}
	.st24{fill:url(#SVGID_25_);}
	.st25{fill:url(#SVGID_26_);}
	.st26{fill:url(#SVGID_27_);}
	.st27{fill:url(#SVGID_28_);}
	.st28{fill:url(#SVGID_29_);}
	.st29{fill:url(#SVGID_30_);}
	.st30{fill:url(#SVGID_31_);}
	.st31{fill:url(#SVGID_32_);}
	.st32{fill:url(#SVGID_33_);}
	.st33{fill:url(#SVGID_34_);}
	.st34{fill:url(#SVGID_35_);}
	.st35{fill:#38383A;}
	.st36{fill:url(#SVGID_36_);}
	.st37{fill:url(#SVGID_37_);}
	.st38{fill:url(#SVGID_38_);}
	.st39{fill:url(#SVGID_39_);}
	.st40{fill:url(#SVGID_40_);}
	.st41{fill:url(#SVGID_41_);}
	.st42{fill:url(#SVGID_42_);}
	.st43{fill:url(#SVGID_43_);}
	.st44{fill:url(#SVGID_44_);}
	.st45{fill:url(#SVGID_45_);}
	.st46{fill:url(#SVGID_46_);}
	.st47{fill:url(#SVGID_47_);}
	.st48{fill:url(#SVGID_48_);}
	.st49{fill:url(#SVGID_49_);}
	.st50{fill:url(#SVGID_50_);}
	.st51{fill:url(#SVGID_51_);}
	.st52{fill:url(#SVGID_52_);}
	.st53{fill:url(#SVGID_53_);}
	.st54{fill:url(#SVGID_54_);}
	.st55{fill:url(#SVGID_55_);}
	.st56{fill:url(#SVGID_56_);}
	.st57{fill:url(#SVGID_57_);}
	.st58{fill:url(#SVGID_58_);}
	.st59{fill:url(#SVGID_59_);}
	.st60{fill:url(#SVGID_60_);}
	.st61{fill:url(#SVGID_61_);}
	.st62{fill:url(#SVGID_62_);}
	.st63{fill:url(#SVGID_63_);}
	.st64{fill:url(#SVGID_64_);}
	.st65{fill:url(#SVGID_65_);}
	.st66{fill:url(#SVGID_66_);}
	.st67{fill:url(#SVGID_67_);}
	.st68{fill:url(#SVGID_68_);}
	.st69{fill:url(#SVGID_69_);}
	.st70{fill:url(#SVGID_70_);}
	.st71{fill:url(#SVGID_71_);}
	.st72{fill:url(#SVGID_72_);}
	.st73{fill:url(#SVGID_73_);}
	.st74{fill:url(#SVGID_74_);}
	.st75{fill:url(#SVGID_75_);}
	.st76{fill:url(#SVGID_76_);}
	.st77{fill:url(#SVGID_77_);}
	.st78{fill:url(#SVGID_78_);}
	.st79{fill:url(#SVGID_79_);}
	.st80{fill:url(#SVGID_80_);}
	.st81{fill:url(#SVGID_81_);}
	.st82{fill:url(#SVGID_82_);}
	.st83{fill:url(#SVGID_83_);}
	.st84{fill:url(#SVGID_84_);}
	.st85{fill:url(#SVGID_85_);}
	.st86{fill:url(#SVGID_86_);}
	.st87{fill:url(#SVGID_87_);}
	.st88{fill:url(#SVGID_88_);}
	.st89{fill:url(#SVGID_89_);}
	.st90{fill:url(#SVGID_90_);}
	.st91{fill:url(#SVGID_91_);}
	.st92{fill:url(#SVGID_92_);}
	.st93{fill:url(#SVGID_93_);}
	.st94{fill:url(#SVGID_94_);}
	.st95{fill:url(#SVGID_95_);}
	.st96{fill:url(#SVGID_96_);}
	.st97{fill:url(#SVGID_97_);}
	.st98{fill:url(#SVGID_98_);}
	.st99{fill:url(#SVGID_99_);}
	.st100{fill:url(#SVGID_100_);}
	.st101{fill:url(#SVGID_101_);}
	.st102{fill:url(#SVGID_102_);}
	.st103{fill:url(#SVGID_103_);}
	.st104{fill:url(#SVGID_104_);}
	.st105{fill:url(#SVGID_105_);}
</style>
<g>
	<linearGradient id="SVGID_1_" gradientUnits="userSpaceOnUse" x1="31.1253" y1="73.9761" x2="92.1852" y2="31.1548">
		<stop  offset="0" style="stop-color:#24AD91"/>
		<stop  offset="0.258" style="stop-color:#24AA92"/>
		<stop  offset="0.4781" style="stop-color:#239F94"/>
		<stop  offset="0.6842" style="stop-color:#218E99"/>
		<stop  offset="0.8808" style="stop-color:#1F759E"/>
		<stop  offset="1" style="stop-color:#1D62A3"/>
	</linearGradient>
	<path class="st0" d="M67.2,13.3C67.2,13.3,67.2,13.3,67.2,13.3C67.2,13.3,67.2,13.3,67.2,13.3c0.9,1.6,1.6,3.4,2.2,5.1
		s1,3.6,1.3,5.5c0.2,1.6,0.3,3.2,0.2,4.9c-0.1,1.6-0.4,3.2-0.8,4.7c-0.4,1.5-1,3-1.7,4.4c-0.7,1.4-1.6,2.7-2.6,4
		c-0.1,0.2-0.2,0.5-0.3,0.8c-0.1,0.3-0.1,0.5-0.2,0.8c0,0,0,0,0,0.1c0,0,0,0,0,0.1c0,0.3,0,0.6,0,0.9c0,0.3,0.1,0.6,0.2,0.9
		c0,0,0,0.1,0,0.1c0,0,0,0.1,0,0.1l1.3,5.2l1.3,5.2l0,0l0,0c0.2,0.8,0.1,1.5-0.3,2.1c-0.3,0.6-0.9,1.1-1.8,1.5
		c-0.5,0.2-1.1,0.4-1.8,0.5c-0.7,0.1-1.5,0.2-2.5,0.3c-0.1,0.1-0.1,0.1-0.2,0.2c-0.1,0.1-0.1,0.2-0.2,0.3c-0.1,0.3-0.2,0.6-0.3,0.9
		c-0.1,0.4-0.1,0.8-0.2,1.2c0,0.1,0,0.2-0.1,0.3c0,0.1-0.1,0.2-0.1,0.3c-0.2,0.4-0.4,0.7-0.6,1c-0.2,0.3-0.5,0.5-0.8,0.8
		c-0.1,0-0.1,0.1-0.2,0.1c-0.1,0-0.1,0.1-0.2,0.1c0,0.1,0,0.2,0,0.3c0,0.1,0,0.2,0,0.3c-0.1,0.4-0.2,0.8-0.4,1.2
		c-0.2,0.4-0.4,0.7-0.6,1.1c-0.3,0.3-0.6,0.6-0.9,0.9c-0.3,0.3-0.7,0.5-1.1,0.6c-0.1,0.1-0.3,0.1-0.4,0.2c-0.1,0-0.3,0.1-0.5,0.1
		c-0.5,2-1.3,3.6-2.2,4.8s-2.1,2-3.4,2.4c-1.4,0.4-2.9,0.4-4.7,0C42.9,76.9,41,76,39,74.6c-1.1-0.3-2.2-0.5-3.3-0.5
		s-2.2,0.1-3.2,0.4c-1.1,0.3-2.1,0.7-3.1,1.3c-1,0.6-1.8,1.3-2.6,2.1c0,0-0.1,0.1-0.1,0.1c0,0-0.1,0.1-0.1,0.1
		c-0.1,0.1-0.1,0.1-0.2,0.1c-0.1,0-0.1,0.1-0.2,0.1c3.5,2.9,7.6,5.2,12,6.7s9.2,2.2,14.1,2.1c10.7-0.4,20.2-5.1,26.9-12.4
		c6.7-7.3,10.7-17.1,10.2-27.8c-0.3-7.5-2.7-14.3-6.6-20.1C78.9,20.9,73.5,16.3,67.2,13.3z"/>
	<g>
		<linearGradient id="SVGID_2_" gradientUnits="userSpaceOnUse" x1="7.8445" y1="37.2958" x2="55.2361" y2="38.2763">
			<stop  offset="0" style="stop-color:#24AD91"/>
			<stop  offset="0.4623" style="stop-color:#24AB91"/>
			<stop  offset="0.6372" style="stop-color:#23A493"/>
			<stop  offset="0.7634" style="stop-color:#229896"/>
			<stop  offset="0.8662" style="stop-color:#20879A"/>
			<stop  offset="0.9537" style="stop-color:#1E719F"/>
			<stop  offset="1" style="stop-color:#1D62A3"/>
		</linearGradient>
		<path class="st1" d="M58.9,37.8c-0.3,0-0.7-0.3-1.4-0.6c-0.6-0.4-1.3-0.9-2.2-1.3c-0.8-0.5-2-1-3.1-1.5c-1-0.5-1.9-0.8-1.9-0.8
			s0.5-1,1.1-2c0.6-1,1.3-2.1,1.7-2.4c0.4-0.3,1-0.4,1.9-0.6c0.9-0.2,2-0.4,3.2-1c1.2-0.5,1.7-1,1.9-1.8c0.2-0.8,0.3-1.9,0.7-3.5
			c0.2-0.7,0.3-1.2,0.5-1.6c0.1-0.4,0.2-0.7,0.3-0.9c-0.1-0.1-0.3-0.2-0.4-0.3c-0.1-0.1-0.3-0.2-0.4-0.3c-0.1,0.1-0.1,0.2-0.2,0.3
			s-0.1,0.3-0.2,0.4c-0.2,0.7-0.3,1.1-0.4,1.3s-0.1,0.2-0.1,0.2s-0.3,0.9-0.5,1.9s-0.6,2.1-0.7,2.3c-0.1,0.3-0.8,0.6-1.6,0.8
			c-0.9,0.3-1.9,0.5-2.9,0.6c-1,0.1-1.5,0.3-1.9,0.4c-0.4,0.2-0.6,0.4-0.8,0.6c-0.2,0.2-1,1.3-1.9,2.4c-0.8,1.1-1.6,2.1-1.6,2.1
			s-1-0.2-2.1-0.4c-1.2-0.2-2.5-0.4-3.3-0.4c-0.5,0-1.4,0.4-2.4,0.9c-1,0.5-2,1.1-2.8,1.6c-0.2-0.5-0.5-1.5-0.8-2.4
			c-0.3-0.9-0.5-1.7-0.5-1.9c0.1-0.2,0.4-0.5,1-0.9c0.6-0.4,1.6-0.8,2.8-1.3c1.2-0.5,2-0.7,2.6-1.1c0.6-0.4,1.2-1,2.1-2.3
			c0.6-0.9,0.9-1.8,1.1-2.6s0.3-1.5,0.4-2.1c0.1-0.5,0.3-0.9,0.7-1.2c0.3-0.3,0.8-0.5,1.3-0.7c0.4-0.2,0.9-0.3,1.5-0.5
			c0.6-0.2,1.2-0.4,1.8-0.6c0.6-0.2,1.1-0.4,1.6-0.6c0.5-0.2,0.8-0.5,1-0.8c-0.2-0.1-0.4-0.2-0.7-0.2c-0.2-0.1-0.5-0.2-0.7-0.2
			c-0.3,0.4-1.6,0.6-3.2,1c-1.6,0.4-3.4,1-4.4,2.2c-0.1,0.1-0.1,0.1-0.1,0.2c0,0.1-0.1,0.1-0.1,0.2c-0.6-0.2-1.5-0.6-2.3-1.1
			c-0.8-0.5-1.4-1.1-1.4-1.8c0-0.2,0-0.5,0-0.7c0-0.2,0-0.4,0-0.6c-0.2,0-0.4,0.1-0.7,0.1c-0.2,0-0.4,0.1-0.7,0.2
			C40,14.9,40,15.5,40,15.9c0,0.5,0.1,0.8,0.3,1.1c0.3,0.3,1,0.9,1.8,1.5s1.7,1.2,2.3,1.6c-0.1,0.6-0.2,1.1-0.3,1.6s-0.2,1-0.3,1.3
			c-0.2,0.5-0.5,1-1.2,1.4c-0.7,0.5-1.7,0.9-3.2,1.6c-0.1-0.3-0.3-0.6-0.5-0.9c-0.2-0.3-0.5-0.5-0.8-0.6c-0.7-0.3-1.8-0.4-2.7-0.5
			c-0.9-0.1-1.7-0.2-1.8-0.4c-0.1-0.2,0-0.6,0-1.1c0-0.6,0.1-1.3-0.1-2.1c-0.1-0.4-0.3-0.8-0.5-1.2c-0.2-0.4-0.5-0.8-0.8-1.2
			c0,0-0.1,0.1-0.1,0.1S32,18.1,32,18.2c0.3,0.6,0.5,1.1,0.7,1.5c0.2,0.4,0.3,0.7,0.3,0.8c0,0.1,0,0.9-0.1,1.7
			c-0.1,0.8-0.3,1.5-0.4,1.6c-0.2,0.1-0.8,0-1.4-0.1S30,23.4,30,23.4s0.3,0.2,0.8,0.4s1.1,0.5,1.9,0.7c0.8,0.2,1.7,0.4,2.6,0.5
			c0.8,0.1,1.5,0.3,1.7,0.5c0.1,0.1,0.2,0.3,0.3,0.5c0.1,0.2,0.3,0.5,0.4,0.8c-1.1,0.4-1.9,0.8-2.4,1.3c-0.5,0.5-0.8,1.1-0.7,1.9
			c0,0.7,0.2,1.6,0.5,2.5c0.2,0.9,0.5,1.7,0.6,2.3c0,0.1,0,0.2-0.1,0.4s-0.2,0.4-0.5,0.7c-2.1,2.6-3.5,3.9-4.7,5.3s-2.4,2.9-4.2,5.8
			c-0.6-1.1-1.4-2.7-2-4.2s-1.2-3.2-1.5-4.4c-0.3-1.3-0.3-1.9,0-2.2c0.3-0.3,0.9-0.5,1.8-1c0.2-0.1,0.4-0.3,0.6-0.5s0.5-0.4,0.7-0.7
			c0.5-0.6,0.7-1,0.7-1.4c0-0.4-0.2-0.8-0.5-1.5c-0.3-0.7-0.4-1.3-0.4-1.7c0-0.4,0-0.6,0-0.6s-0.1,0.4-0.2,0.9
			c-0.1,0.5-0.1,1.2,0.2,1.9c0.2,0.7,0.2,1.2-0.1,1.6c-0.2,0.4-0.6,0.8-0.9,1c-0.3,0.3-1,0.6-1.6,0.8c-0.6,0.2-1.2,0.4-1.2,0.4
			s-0.1-0.5-0.3-1s-0.4-1.2-0.6-1.5c-0.2-0.3-0.6-0.5-1.1-0.8c-0.4-0.2-0.9-0.5-1.1-0.9c-0.2-0.4-0.4-1.2-0.7-2
			c-0.2-0.8-0.4-1.5-0.4-1.5s0,0.7,0,1.5s0.1,1.7,0.3,2.1c0.2,0.4,0.6,0.9,1,1.2c0.4,0.3,0.8,0.6,1,0.9c0.2,0.2,0.3,0.8,0.3,1.5
			c0.1,0.7,0.2,1.6,0.3,2.5c0,0.2,0.1,0.3,0.1,0.5s0.1,0.3,0.1,0.5c0,0-0.1-0.1-0.1-0.1c-0.1,0-0.1-0.1-0.2-0.1
			c-0.7-0.4-1.3-0.6-1.9-0.8s-1.1-0.2-1.5-0.2c-0.4-0.1-0.6-0.2-0.8-0.5s-0.4-0.5-0.5-0.9c-0.1-0.3-0.2-0.6-0.4-1s-0.3-0.8-0.5-1.3
			c-0.1-0.4-0.3-0.8-0.4-1.1c-0.2-0.3-0.4-0.6-0.6-0.7c-0.1,0.2-0.1,0.3-0.2,0.5c-0.1,0.2-0.1,0.3-0.1,0.5c0.3,0.2,0.5,1.2,0.8,2.3
			c0.3,1.1,0.8,2.4,1.6,3.1c0,0,0.1,0.1,0.1,0.1c0,0,0.1,0.1,0.2,0.1c-0.2,0.4-0.4,1.1-0.7,1.6c-0.3,0.5-0.8,1-1.3,1
			c-0.2,0-0.3,0-0.5,0c-0.2,0-0.3,0-0.5,0c0,0.2,0.1,0.3,0.1,0.5s0.1,0.3,0.1,0.5c0.4,0,0.8,0.1,1.1,0s0.6-0.1,0.8-0.2
			c0.2-0.2,0.6-0.7,1-1.3c0.4-0.6,0.8-1.2,1.1-1.7c0.4,0.1,0.8,0.1,1.2,0.2c0.4,0.1,0.7,0.1,0.9,0.2c0.2,0.1,0.5,0.3,0.8,0.6
			s0.6,0.7,0.8,1.1c0.3,1.6,0.7,3.3,1.2,4.9c0.5,1.6,1.1,3.2,1.8,4.5c-1.7,3.5-2.1,6.4-2.1,8.3c0,2,0.4,3.1,0.4,3.1l2-1.7l2-1.7
			c0.1-2,0-3.4,0.6-5.3c0.6-1.9,2-4.2,5.1-8.3c0.9,0.1,1.5,0.5,1.9,0.9s0.7,1.1,1,1.6c0.4,0.9,0.6,1.6,1,2.1
			c0.4,0.5,0.9,0.7,1.9,0.6c1-0.1,2,0,3,0.2c1,0.3,1.8,0.7,2.5,1.5c-0.7-1.6-2.1-2.2-3.3-2.5s-2.4-0.2-2.8-0.6
			c-0.4-0.4-0.6-1.5-1.1-2.7c-0.5-1.2-1.3-2.4-3.1-3.2c0.6-0.8,1.6-1.9,2.5-3c0.9-1.1,1.7-2,2-2.5c0.5-0.6,1.3-1.3,2.2-1.9
			c0.9-0.6,1.9-1.1,2.9-1.2c0.9-0.1,2.8,0.2,4.9,0.8s4.2,1.3,5.7,2c1.2,0.6,1.6,0.9,1.7,1.4c0,0.5-0.2,1-0.3,2c0,0.2,0,0.5,0,0.8
			c0,0.3,0.1,0.6,0.2,1c0.2,0.8,0.4,1.2,0.7,1.4c0.3,0.2,0.8,0.4,1.5,0.6c0.7,0.2,1.3,0.5,1.6,0.8c0.3,0.2,0.5,0.4,0.5,0.4
			s-0.2-0.3-0.6-0.7c-0.4-0.4-0.9-0.8-1.6-1c-0.7-0.2-1-0.6-1.2-1.1c-0.2-0.4-0.2-0.9-0.3-1.3c0-0.4,0.2-1.1,0.4-1.8
			s0.4-1.2,0.4-1.2s0.4,0.2,1,0.4c0.5,0.2,1.1,0.4,1.5,0.5c0.4,0,0.8-0.2,1.3-0.4s0.9-0.4,1.3-0.3c0.4,0.1,1.2,0.4,2,0.7
			c0.7,0.3,1.4,0.6,1.4,0.6s-0.5-0.4-1.2-0.9c-0.6-0.5-1.4-1-1.9-1.1c-0.5-0.1-1.1,0-1.6,0.1C59.6,37.7,59.2,37.8,58.9,37.8z"/>
		<linearGradient id="SVGID_3_" gradientUnits="userSpaceOnUse" x1="8.086" y1="25.6205" x2="55.4776" y2="26.601">
			<stop  offset="0" style="stop-color:#24AD91"/>
			<stop  offset="0.4623" style="stop-color:#24AB91"/>
			<stop  offset="0.6372" style="stop-color:#23A493"/>
			<stop  offset="0.7634" style="stop-color:#229896"/>
			<stop  offset="0.8662" style="stop-color:#20879A"/>
			<stop  offset="0.9537" style="stop-color:#1E719F"/>
			<stop  offset="1" style="stop-color:#1D62A3"/>
		</linearGradient>
		<path class="st2" d="M60.3,26.7c0.9-0.3,1.8-0.5,2.8-0.6c1,0,1.9,0.1,2.8,0.4c-1-0.2-2-0.2-3-0.1c-0.9,0.1-1.8,0.3-2.7,0.7
			c1.1,1,2.2,1.4,3.4,1.3c1.2-0.1,2.4-0.7,3.8-1.7c-1.1-0.6-2.3-1.3-3.6-1.6C62.5,24.9,61.3,25.2,60.3,26.7z"/>
		<linearGradient id="SVGID_4_" gradientUnits="userSpaceOnUse" x1="8.2371" y1="18.3188" x2="55.6287" y2="19.2993">
			<stop  offset="0" style="stop-color:#24AD91"/>
			<stop  offset="0.4623" style="stop-color:#24AB91"/>
			<stop  offset="0.6372" style="stop-color:#23A493"/>
			<stop  offset="0.7634" style="stop-color:#229896"/>
			<stop  offset="0.8662" style="stop-color:#20879A"/>
			<stop  offset="0.9537" style="stop-color:#1E719F"/>
			<stop  offset="1" style="stop-color:#1D62A3"/>
		</linearGradient>
		<path class="st3" d="M53.3,18.5c-0.9-0.3-2.1-0.7-3.1-0.7c-1,0-2,0.4-2.5,1.8c0.6-0.4,1.4-0.7,2.1-0.9s1.6-0.2,2.3-0.1
			c-0.9,0-1.7,0.1-2.4,0.4c-0.7,0.2-1.4,0.5-2,1c1,0.7,2,0.8,3,0.5C51.6,20.2,52.5,19.5,53.3,18.5z"/>
		<linearGradient id="SVGID_5_" gradientUnits="userSpaceOnUse" x1="7.8208" y1="38.4405" x2="55.2124" y2="39.421">
			<stop  offset="0" style="stop-color:#24AD91"/>
			<stop  offset="0.4623" style="stop-color:#24AB91"/>
			<stop  offset="0.6372" style="stop-color:#23A493"/>
			<stop  offset="0.7634" style="stop-color:#229896"/>
			<stop  offset="0.8662" style="stop-color:#20879A"/>
			<stop  offset="0.9537" style="stop-color:#1E719F"/>
			<stop  offset="1" style="stop-color:#1D62A3"/>
		</linearGradient>
		<path class="st4" d="M25.5,44c0.8-1.2,1.4-2.4,1.8-3.7c0.4-1.3,0.7-2.8,0.7-4.4c0.2,1.3,0,2.8-0.3,4.2s-1,2.7-1.7,3.9
			c2.5-1,3.3-2.7,3.4-4.6c0-1.9-0.7-4-1.1-5.7c-1.8,1.6-3.1,3.2-3.6,4.9C24.1,40.3,24.3,42.1,25.5,44z"/>
		<linearGradient id="SVGID_6_" gradientUnits="userSpaceOnUse" x1="7.9699" y1="31.2368" x2="55.3614" y2="32.2173">
			<stop  offset="0" style="stop-color:#24AD91"/>
			<stop  offset="0.4623" style="stop-color:#24AB91"/>
			<stop  offset="0.6372" style="stop-color:#23A493"/>
			<stop  offset="0.7634" style="stop-color:#229896"/>
			<stop  offset="0.8662" style="stop-color:#20879A"/>
			<stop  offset="0.9537" style="stop-color:#1E719F"/>
			<stop  offset="1" style="stop-color:#1D62A3"/>
		</linearGradient>
		<path class="st5" d="M33.5,36.5c1.4-2.5,0.9-4.4-0.3-6s-3.2-2.8-4.8-3.9C28,29.1,28,31.2,28.7,33c0.7,1.8,2.1,3.1,4.3,3.9
			c-0.1-1.5-0.4-2.9-1-4.3c-0.5-1.4-1.3-2.7-2.3-4.1c1,1,1.9,2.3,2.5,3.6C32.9,33.6,33.3,35.1,33.5,36.5z"/>
		<linearGradient id="SVGID_7_" gradientUnits="userSpaceOnUse" x1="8.1926" y1="20.4721" x2="55.5841" y2="21.4526">
			<stop  offset="0" style="stop-color:#24AD91"/>
			<stop  offset="0.4623" style="stop-color:#24AB91"/>
			<stop  offset="0.6372" style="stop-color:#23A493"/>
			<stop  offset="0.7634" style="stop-color:#229896"/>
			<stop  offset="0.8662" style="stop-color:#20879A"/>
			<stop  offset="0.9537" style="stop-color:#1E719F"/>
			<stop  offset="1" style="stop-color:#1D62A3"/>
		</linearGradient>
		<path class="st6" d="M41,24.8C40.4,24,40.1,23,39.8,22c-0.2-1-0.3-2-0.1-3c0,1.1,0.1,2.1,0.4,3.1s0.7,1.8,1.2,2.7
			c0.9-1.3,1.1-2.6,0.7-3.8c-0.3-1.2-1.2-2.4-2.4-3.6c-0.4,1.2-0.9,2.7-0.9,4C38.7,22.8,39.2,24,41,24.8z"/>
		<linearGradient id="SVGID_8_" gradientUnits="userSpaceOnUse" x1="7.7683" y1="40.9762" x2="55.1599" y2="41.9567">
			<stop  offset="0" style="stop-color:#24AD91"/>
			<stop  offset="0.4623" style="stop-color:#24AB91"/>
			<stop  offset="0.6372" style="stop-color:#23A493"/>
			<stop  offset="0.7634" style="stop-color:#229896"/>
			<stop  offset="0.8662" style="stop-color:#20879A"/>
			<stop  offset="0.9537" style="stop-color:#1E719F"/>
			<stop  offset="1" style="stop-color:#1D62A3"/>
		</linearGradient>
		<path class="st7" d="M35.1,42.1c1.9,1.8,3.8,2.5,5.9,2.4c2.1-0.2,4.2-1.2,6.5-2.8c-1.8-1-4-2.3-6.2-2.8c-2.2-0.4-4.3,0-6.1,2.6
			c1.5-0.6,3.2-0.9,4.8-0.9s3.3,0.2,4.8,0.7c-1.8-0.3-3.5-0.4-5.1-0.3C38.2,41.2,36.7,41.5,35.1,42.1z"/>
		<linearGradient id="SVGID_9_" gradientUnits="userSpaceOnUse" x1="7.6448" y1="46.9456" x2="55.0364" y2="47.9261">
			<stop  offset="0" style="stop-color:#24AD91"/>
			<stop  offset="0.4623" style="stop-color:#24AB91"/>
			<stop  offset="0.6372" style="stop-color:#23A493"/>
			<stop  offset="0.7634" style="stop-color:#229896"/>
			<stop  offset="0.8662" style="stop-color:#20879A"/>
			<stop  offset="0.9537" style="stop-color:#1E719F"/>
			<stop  offset="1" style="stop-color:#1D62A3"/>
		</linearGradient>
		<path class="st8" d="M46,46.6c-0.9-0.1-1.9-0.3-2.9-0.1c-0.9,0.2-1.7,0.7-2,2c0.5-0.5,1.1-0.8,1.8-1.1s1.3-0.5,2-0.5
			c-0.8,0.2-1.4,0.4-2.1,0.7c-0.6,0.3-1.2,0.7-1.7,1.2c1,0.4,1.9,0.4,2.7,0S45.4,47.6,46,46.6z"/>
		
			<linearGradient id="SVGID_10_" gradientUnits="userSpaceOnUse" x1="1236.2067" y1="-5559.2891" x2="1283.5983" y2="-5558.3086" gradientTransform="matrix(0.1758 -0.9844 0.9844 0.1758 4618.3364 5707.1553)">
			<stop  offset="0" style="stop-color:#24AD91"/>
			<stop  offset="0.4623" style="stop-color:#24AB91"/>
			<stop  offset="0.6372" style="stop-color:#23A493"/>
			<stop  offset="0.7634" style="stop-color:#229896"/>
			<stop  offset="0.8662" style="stop-color:#20879A"/>
			<stop  offset="0.9537" style="stop-color:#1E719F"/>
			<stop  offset="1" style="stop-color:#1D62A3"/>
		</linearGradient>
		<path class="st9" d="M58.1,47.5c-1-0.2-1.9-0.6-2.8-1.1c-0.9-0.6-1.7-1.2-2.3-2c0.1,2,1.1,2.9,2.5,3.3c1.3,0.4,2.9,0.4,4.2,0.4
			c-0.7-1.6-1.6-2.8-2.6-3.6c-1.1-0.7-2.3-1-3.9-0.6c0.6,0.8,1.3,1.5,2.2,2.1C56.1,46.6,57,47.1,58.1,47.5z"/>
		
			<linearGradient id="SVGID_11_" gradientUnits="userSpaceOnUse" x1="513.7906" y1="-4077.2654" x2="561.1822" y2="-4076.2849" gradientTransform="matrix(0.6888 -0.7249 0.7249 0.6888 1713.5961 4178.9214)">
			<stop  offset="0" style="stop-color:#24AD91"/>
			<stop  offset="0.4623" style="stop-color:#24AB91"/>
			<stop  offset="0.6372" style="stop-color:#23A493"/>
			<stop  offset="0.7634" style="stop-color:#229896"/>
			<stop  offset="0.8662" style="stop-color:#20879A"/>
			<stop  offset="0.9537" style="stop-color:#1E719F"/>
			<stop  offset="1" style="stop-color:#1D62A3"/>
		</linearGradient>
		<path class="st10" d="M52.6,50.1c-0.5-0.5-1-1.1-1.3-1.8s-0.5-1.5-0.6-2.2c-0.7,1.3-0.5,2.3,0.2,3.1s1.6,1.4,2.4,2
			c0.2-1.3,0.2-2.4-0.2-3.3c-0.4-0.9-1.1-1.6-2.2-2c0.1,0.8,0.2,1.5,0.5,2.2S52.1,49.5,52.6,50.1z"/>
		<linearGradient id="SVGID_12_" gradientUnits="userSpaceOnUse" x1="7.7661" y1="41.0844" x2="55.1577" y2="42.065">
			<stop  offset="0" style="stop-color:#24AD91"/>
			<stop  offset="0.4623" style="stop-color:#24AB91"/>
			<stop  offset="0.6372" style="stop-color:#23A493"/>
			<stop  offset="0.7634" style="stop-color:#229896"/>
			<stop  offset="0.8662" style="stop-color:#20879A"/>
			<stop  offset="0.9537" style="stop-color:#1E719F"/>
			<stop  offset="1" style="stop-color:#1D62A3"/>
		</linearGradient>
		<path class="st11" d="M52.6,37.3c-2.7,0.2-3.9,1.7-4.5,3.5c-0.6,1.8-0.5,4-0.5,5.8c2.2-1,3.8-2.2,4.8-3.7s1.3-3.3,0.7-5.4
			c-1.1,0.9-2,1.9-2.8,3s-1.4,2.5-1.9,4c0.2-1.3,0.7-2.7,1.5-3.9C50.6,39.3,51.5,38.2,52.6,37.3z"/>
		<linearGradient id="SVGID_13_" gradientUnits="userSpaceOnUse" x1="7.785" y1="40.1719" x2="55.1766" y2="41.1524">
			<stop  offset="0" style="stop-color:#24AD91"/>
			<stop  offset="0.4623" style="stop-color:#24AB91"/>
			<stop  offset="0.6372" style="stop-color:#23A493"/>
			<stop  offset="0.7634" style="stop-color:#229896"/>
			<stop  offset="0.8662" style="stop-color:#20879A"/>
			<stop  offset="0.9537" style="stop-color:#1E719F"/>
			<stop  offset="1" style="stop-color:#1D62A3"/>
		</linearGradient>
		<path class="st12" d="M56.3,41.2c1,1.6,2.3,2,3.7,1.8s2.7-1,3.9-1.5c-1.4-1.1-2.7-1.7-3.9-1.9c-1.3-0.1-2.5,0.2-3.7,1.3
			c0.9,0.4,1.8,0.7,2.8,0.8c1,0.1,2,0.1,3.1-0.1c-0.9,0.3-1.9,0.4-3,0.3S57.2,41.6,56.3,41.2z"/>
		<linearGradient id="SVGID_14_" gradientUnits="userSpaceOnUse" x1="8.2503" y1="17.6805" x2="55.6419" y2="18.661">
			<stop  offset="0" style="stop-color:#24AD91"/>
			<stop  offset="0.4623" style="stop-color:#24AB91"/>
			<stop  offset="0.6372" style="stop-color:#23A493"/>
			<stop  offset="0.7634" style="stop-color:#229896"/>
			<stop  offset="0.8662" style="stop-color:#20879A"/>
			<stop  offset="0.9537" style="stop-color:#1E719F"/>
			<stop  offset="1" style="stop-color:#1D62A3"/>
		</linearGradient>
		<path class="st13" d="M60.5,20.2c-0.7-0.7-1.5-1.3-2.5-1.8c-0.9-0.5-1.9-0.8-3.1-1.1c1,0,2,0.3,3,0.8s1.9,1,2.6,1.7
			c-0.4-2-1.5-2.7-2.9-3c-1.4-0.3-3,0-4.3,0.1c0.9,1.5,1.9,2.6,3.1,3.2C57.7,20.8,59,20.8,60.5,20.2z"/>
		<linearGradient id="SVGID_15_" gradientUnits="userSpaceOnUse" x1="8.0829" y1="25.7704" x2="55.4745" y2="26.7509">
			<stop  offset="0" style="stop-color:#24AD91"/>
			<stop  offset="0.4623" style="stop-color:#24AB91"/>
			<stop  offset="0.6372" style="stop-color:#23A493"/>
			<stop  offset="0.7634" style="stop-color:#229896"/>
			<stop  offset="0.8662" style="stop-color:#20879A"/>
			<stop  offset="0.9537" style="stop-color:#1E719F"/>
			<stop  offset="1" style="stop-color:#1D62A3"/>
		</linearGradient>
		<path class="st14" d="M49.6,21.1c-1.4,1.3-3.3,2.7-4.4,4.5s-1.4,3.7,0.4,6.1c0-1.5,0.2-3,0.7-4.5c0.5-1.5,1.2-2.8,2.1-3.9
			c-0.9,1.5-1.5,2.9-1.9,4.3S46,30.5,46,32c2.2-1.1,3.4-2.5,3.9-4.4C50.5,25.8,50.3,23.6,49.6,21.1z"/>
		<linearGradient id="SVGID_16_" gradientUnits="userSpaceOnUse" x1="7.977" y1="30.8925" x2="55.3685" y2="31.8731">
			<stop  offset="0" style="stop-color:#24AD91"/>
			<stop  offset="0.4623" style="stop-color:#24AB91"/>
			<stop  offset="0.6372" style="stop-color:#23A493"/>
			<stop  offset="0.7634" style="stop-color:#229896"/>
			<stop  offset="0.8662" style="stop-color:#20879A"/>
			<stop  offset="0.9537" style="stop-color:#1E719F"/>
			<stop  offset="1" style="stop-color:#1D62A3"/>
		</linearGradient>
		<path class="st15" d="M62.5,30.9c-1.7-0.6-3.7-1.4-5.6-1.4c-1.9-0.1-3.6,0.6-4.7,3.1c1.2-0.7,2.5-1.2,3.9-1.5
			c1.4-0.3,2.8-0.3,4.1-0.1c-1.6,0-3,0.2-4.3,0.5c-1.3,0.4-2.6,0.9-3.7,1.6c1.8,1.2,3.6,1.5,5.3,1.1C59.2,33.7,60.8,32.6,62.5,30.9z
			"/>
		<linearGradient id="SVGID_17_" gradientUnits="userSpaceOnUse" x1="8.262" y1="17.1158" x2="55.6536" y2="18.0964">
			<stop  offset="0" style="stop-color:#24AD91"/>
			<stop  offset="0.4623" style="stop-color:#24AB91"/>
			<stop  offset="0.6372" style="stop-color:#23A493"/>
			<stop  offset="0.7634" style="stop-color:#229896"/>
			<stop  offset="0.8662" style="stop-color:#20879A"/>
			<stop  offset="0.9537" style="stop-color:#1E719F"/>
			<stop  offset="1" style="stop-color:#1D62A3"/>
		</linearGradient>
		<path class="st16" d="M37.9,15.9c-0.9,0.7-1.6,1.4-2.2,2.2c-0.6,0.8-1.1,1.6-1.4,2.5c1.6-0.1,2.7-0.7,3.4-1.7c0.8-1,1.2-2.4,1.4-4
			c-1.2,0.4-2.7,0.8-3.7,1.6c-1.1,0.8-1.7,1.9-1.3,3.8c0.4-0.9,0.9-1.8,1.5-2.5S37.1,16.3,37.9,15.9z"/>
		<linearGradient id="SVGID_18_" gradientUnits="userSpaceOnUse" x1="8.1683" y1="21.6454" x2="55.5599" y2="22.6259">
			<stop  offset="0" style="stop-color:#24AD91"/>
			<stop  offset="0.4623" style="stop-color:#24AB91"/>
			<stop  offset="0.6372" style="stop-color:#23A493"/>
			<stop  offset="0.7634" style="stop-color:#229896"/>
			<stop  offset="0.8662" style="stop-color:#20879A"/>
			<stop  offset="0.9537" style="stop-color:#1E719F"/>
			<stop  offset="1" style="stop-color:#1D62A3"/>
		</linearGradient>
		<path class="st17" d="M62.2,21c0.9,0.2,1.8,0.6,2.6,1.1c0.8,0.5,1.5,1.2,2,1.9c-0.7-0.7-1.5-1.3-2.3-1.8c-0.8-0.5-1.6-0.8-2.5-1
			c0.3,1.5,1,2.4,2,3c1,0.6,2.4,0.8,3.9,0.8c-0.5-1.1-1.1-2.4-2-3.3C65,20.8,63.9,20.3,62.2,21z"/>
		<linearGradient id="SVGID_19_" gradientUnits="userSpaceOnUse" x1="7.9239" y1="33.4595" x2="55.3154" y2="34.44">
			<stop  offset="0" style="stop-color:#24AD91"/>
			<stop  offset="0.4623" style="stop-color:#24AB91"/>
			<stop  offset="0.6372" style="stop-color:#23A493"/>
			<stop  offset="0.7634" style="stop-color:#229896"/>
			<stop  offset="0.8662" style="stop-color:#20879A"/>
			<stop  offset="0.9537" style="stop-color:#1E719F"/>
			<stop  offset="1" style="stop-color:#1D62A3"/>
		</linearGradient>
		<path class="st18" d="M59.2,35.9c0.8-0.8,1.7-1.4,2.8-1.9c1-0.5,2.1-0.8,3.2-0.9c-1.2,0.3-2.3,0.7-3.3,1.2c-1,0.5-1.9,1.2-2.6,2
			c1.7,0.6,3.1,0.5,4.4-0.1c1.3-0.7,2.3-1.9,3.3-3.6c-1.4-0.1-3.2-0.4-4.7-0.1S59.5,33.8,59.2,35.9z"/>
		<linearGradient id="SVGID_20_" gradientUnits="userSpaceOnUse" x1="8.0059" y1="29.4939" x2="55.3975" y2="30.4744">
			<stop  offset="0" style="stop-color:#24AD91"/>
			<stop  offset="0.4623" style="stop-color:#24AB91"/>
			<stop  offset="0.6372" style="stop-color:#23A493"/>
			<stop  offset="0.7634" style="stop-color:#229896"/>
			<stop  offset="0.8662" style="stop-color:#20879A"/>
			<stop  offset="0.9537" style="stop-color:#1E719F"/>
			<stop  offset="1" style="stop-color:#1D62A3"/>
		</linearGradient>
		<path class="st19" d="M42.9,27.4c-1.2,0.4-2.7,0.8-3.8,1.5c-1.1,0.8-1.8,1.9-1.4,3.8c0.4-0.9,0.9-1.8,1.6-2.5
			c0.7-0.8,1.5-1.4,2.3-1.8c-0.9,0.7-1.7,1.4-2.3,2.1s-1.1,1.6-1.5,2.5c1.6-0.1,2.7-0.6,3.5-1.6C42.2,30.4,42.7,29,42.9,27.4z"/>
		<linearGradient id="SVGID_21_" gradientUnits="userSpaceOnUse" x1="8.3221" y1="14.2103" x2="55.7137" y2="15.1908">
			<stop  offset="0" style="stop-color:#24AD91"/>
			<stop  offset="0.4623" style="stop-color:#24AB91"/>
			<stop  offset="0.6372" style="stop-color:#23A493"/>
			<stop  offset="0.7634" style="stop-color:#229896"/>
			<stop  offset="0.8662" style="stop-color:#20879A"/>
			<stop  offset="0.9537" style="stop-color:#1E719F"/>
			<stop  offset="1" style="stop-color:#1D62A3"/>
		</linearGradient>
		<path class="st20" d="M47.2,13.6c-0.9,0.4-1.6,0.9-2.3,1.5c-0.7,0.6-1.2,1.2-1.7,1.9c1.4,0.2,2.4-0.1,3.3-0.8
			c0.8-0.7,1.4-1.8,1.9-3.2c-1.1,0.1-2.4,0.2-3.5,0.7c-1.1,0.5-1.8,1.3-1.8,3c0.5-0.7,1.1-1.4,1.8-1.9
			C45.6,14.2,46.4,13.8,47.2,13.6z"/>
		<linearGradient id="SVGID_22_" gradientUnits="userSpaceOnUse" x1="7.5778" y1="50.1864" x2="54.9694" y2="51.1669">
			<stop  offset="0" style="stop-color:#24AD91"/>
			<stop  offset="0.4623" style="stop-color:#24AB91"/>
			<stop  offset="0.6372" style="stop-color:#23A493"/>
			<stop  offset="0.7634" style="stop-color:#229896"/>
			<stop  offset="0.8662" style="stop-color:#20879A"/>
			<stop  offset="0.9537" style="stop-color:#1E719F"/>
			<stop  offset="1" style="stop-color:#1D62A3"/>
		</linearGradient>
		<path class="st21" d="M43.9,50.2c1-0.1,2.1-0.1,3.1,0.1c1,0.2,2,0.6,2.8,1.1c-1.1-0.5-2.1-0.8-3.1-0.9s-2-0.1-3,0
			c0.9,1.4,2,2.1,3.3,2.3c1.3,0.2,2.7-0.1,4.4-0.8c-1-0.9-2.1-2-3.4-2.6S45.4,48.9,43.9,50.2z"/>
		<linearGradient id="SVGID_23_" gradientUnits="userSpaceOnUse" x1="7.5852" y1="49.8268" x2="54.9768" y2="50.8073">
			<stop  offset="0" style="stop-color:#24AD91"/>
			<stop  offset="0.4623" style="stop-color:#24AB91"/>
			<stop  offset="0.6372" style="stop-color:#23A493"/>
			<stop  offset="0.7634" style="stop-color:#229896"/>
			<stop  offset="0.8662" style="stop-color:#20879A"/>
			<stop  offset="0.9537" style="stop-color:#1E719F"/>
			<stop  offset="1" style="stop-color:#1D62A3"/>
		</linearGradient>
		<path class="st22" d="M30.9,52.1c0.1-0.9,0.5-1.9,1-2.7c0.5-0.9,1.2-1.7,1.9-2.3c-1.9,0.2-2.8,1.2-3.1,2.4
			c-0.4,1.3-0.3,2.8-0.3,4.1c1.5-0.7,2.7-1.6,3.4-2.6c0.7-1,0.9-2.3,0.5-3.8c-0.8,0.6-1.4,1.3-1.9,2.1C31.7,50.1,31.3,51,30.9,52.1z
			"/>
		<linearGradient id="SVGID_24_" gradientUnits="userSpaceOnUse" x1="7.5577" y1="51.1555" x2="54.9493" y2="52.136">
			<stop  offset="0" style="stop-color:#24AD91"/>
			<stop  offset="0.4623" style="stop-color:#24AB91"/>
			<stop  offset="0.6372" style="stop-color:#23A493"/>
			<stop  offset="0.7634" style="stop-color:#229896"/>
			<stop  offset="0.8662" style="stop-color:#20879A"/>
			<stop  offset="0.9537" style="stop-color:#1E719F"/>
			<stop  offset="1" style="stop-color:#1D62A3"/>
		</linearGradient>
		<path class="st23" d="M35.5,50.1c0.7,0.2,1.3,0.6,1.9,1s1.1,1,1.4,1.6c-0.5-0.6-1-1.1-1.6-1.5s-1.2-0.7-1.9-0.9
			c0.1,1.1,0.6,1.9,1.3,2.4s1.7,0.8,3,0.9c-0.3-0.8-0.7-1.9-1.3-2.7S36.9,49.7,35.5,50.1z"/>
		<linearGradient id="SVGID_25_" gradientUnits="userSpaceOnUse" x1="7.5495" y1="51.5527" x2="54.9411" y2="52.5332">
			<stop  offset="0" style="stop-color:#24AD91"/>
			<stop  offset="0.4623" style="stop-color:#24AB91"/>
			<stop  offset="0.6372" style="stop-color:#23A493"/>
			<stop  offset="0.7634" style="stop-color:#229896"/>
			<stop  offset="0.8662" style="stop-color:#20879A"/>
			<stop  offset="0.9537" style="stop-color:#1E719F"/>
			<stop  offset="1" style="stop-color:#1D62A3"/>
		</linearGradient>
		<path class="st24" d="M39.8,50.6c0.6,0.2,1.2,0.6,1.8,1.1c0.5,0.5,1,1,1.3,1.6c-0.5-0.6-1-1.1-1.5-1.5c-0.5-0.4-1.1-0.7-1.8-1
			c0.1,1.1,0.5,1.9,1.2,2.4c0.7,0.5,1.7,0.8,2.8,1c-0.3-0.8-0.6-1.9-1.1-2.6S41.1,50.2,39.8,50.6z"/>
		<linearGradient id="SVGID_26_" gradientUnits="userSpaceOnUse" x1="8.2467" y1="17.8562" x2="55.6383" y2="18.8367">
			<stop  offset="0" style="stop-color:#24AD91"/>
			<stop  offset="0.4623" style="stop-color:#24AB91"/>
			<stop  offset="0.6372" style="stop-color:#23A493"/>
			<stop  offset="0.7634" style="stop-color:#229896"/>
			<stop  offset="0.8662" style="stop-color:#20879A"/>
			<stop  offset="0.9537" style="stop-color:#1E719F"/>
			<stop  offset="1" style="stop-color:#1D62A3"/>
		</linearGradient>
		<path class="st25" d="M31.7,19c-0.7-0.4-1.4-0.8-2.2-1s-1.6-0.3-2.5-0.3c0.8-0.1,1.6-0.1,2.4,0.1c0.8,0.2,1.6,0.5,2.3,0.9
			c-0.6-1.5-1.6-1.9-2.7-1.9c-1.1,0-2.3,0.5-3.3,0.8c1,1,1.9,1.7,2.9,2C29.6,19.9,30.7,19.7,31.7,19z"/>
		<linearGradient id="SVGID_27_" gradientUnits="userSpaceOnUse" x1="8.0537" y1="27.1848" x2="55.4453" y2="28.1653">
			<stop  offset="0" style="stop-color:#24AD91"/>
			<stop  offset="0.4623" style="stop-color:#24AB91"/>
			<stop  offset="0.6372" style="stop-color:#23A493"/>
			<stop  offset="0.7634" style="stop-color:#229896"/>
			<stop  offset="0.8662" style="stop-color:#20879A"/>
			<stop  offset="0.9537" style="stop-color:#1E719F"/>
			<stop  offset="1" style="stop-color:#1D62A3"/>
		</linearGradient>
		<path class="st26" d="M23.2,32.7c-0.1-1.5-0.5-3-1-4.4c-0.6-1.4-1.4-2.8-2.4-4.1c1.1,1,1.9,2.3,2.6,3.7c0.7,1.4,1.1,2.9,1.2,4.4
			c1.4-2.6,0.9-4.5-0.4-6.2c-1.3-1.6-3.3-2.9-4.9-4c-0.4,2.6-0.4,4.8,0.4,6.6C19.5,30.6,20.9,31.9,23.2,32.7z"/>
		<linearGradient id="SVGID_28_" gradientUnits="userSpaceOnUse" x1="8.1668" y1="21.7172" x2="55.5584" y2="22.6977">
			<stop  offset="0" style="stop-color:#24AD91"/>
			<stop  offset="0.4623" style="stop-color:#24AB91"/>
			<stop  offset="0.6372" style="stop-color:#23A493"/>
			<stop  offset="0.7634" style="stop-color:#229896"/>
			<stop  offset="0.8662" style="stop-color:#20879A"/>
			<stop  offset="0.9537" style="stop-color:#1E719F"/>
			<stop  offset="1" style="stop-color:#1D62A3"/>
		</linearGradient>
		<path class="st27" d="M29.2,25.3c-0.7-1.2-1.5-2.2-2.5-3.1c-1-0.9-2.2-1.7-3.5-2.4c1.2,0.4,2.4,1.1,3.5,1.9c1.1,0.9,2,1.9,2.7,3
			c0.2-2.6-1-4-2.7-4.8c-1.6-0.8-3.8-1-5.4-1.3c0.7,2.2,1.6,4,2.9,5.1C25.4,25,27.1,25.5,29.2,25.3z"/>
		<linearGradient id="SVGID_29_" gradientUnits="userSpaceOnUse" x1="7.9673" y1="31.3582" x2="55.3589" y2="32.3387">
			<stop  offset="0" style="stop-color:#24AD91"/>
			<stop  offset="0.4623" style="stop-color:#24AB91"/>
			<stop  offset="0.6372" style="stop-color:#23A493"/>
			<stop  offset="0.7634" style="stop-color:#229896"/>
			<stop  offset="0.8662" style="stop-color:#20879A"/>
			<stop  offset="0.9537" style="stop-color:#1E719F"/>
			<stop  offset="1" style="stop-color:#1D62A3"/>
		</linearGradient>
		<path class="st28" d="M17.3,34.6c-0.5-0.6-1-1.4-1.3-2.2c-0.3-0.8-0.5-1.7-0.5-2.5c0.2,1,0.4,1.8,0.8,2.6c0.4,0.8,0.8,1.5,1.4,2.1
			c0.6-1.3,0.5-2.4,0.1-3.4c-0.5-1-1.4-1.9-2.6-2.7c-0.2,1.1-0.4,2.4-0.2,3.6S15.7,34.2,17.3,34.6z"/>
		<linearGradient id="SVGID_30_" gradientUnits="userSpaceOnUse" x1="7.8329" y1="37.8548" x2="55.2245" y2="38.8353">
			<stop  offset="0" style="stop-color:#24AD91"/>
			<stop  offset="0.4623" style="stop-color:#24AB91"/>
			<stop  offset="0.6372" style="stop-color:#23A493"/>
			<stop  offset="0.7634" style="stop-color:#229896"/>
			<stop  offset="0.8662" style="stop-color:#20879A"/>
			<stop  offset="0.9537" style="stop-color:#1E719F"/>
			<stop  offset="1" style="stop-color:#1D62A3"/>
		</linearGradient>
		<path class="st29" d="M14.6,40.4c0-0.7-0.1-1.3-0.3-2s-0.5-1.3-0.9-2c0.4,0.5,0.8,1.1,1,1.8s0.4,1.4,0.4,2c0.8-1.1,0.6-2,0.1-2.8
			c-0.5-0.8-1.4-1.4-2-2c-0.3,1.1-0.4,2.1-0.1,3S13.6,40,14.6,40.4z"/>
		<linearGradient id="SVGID_31_" gradientUnits="userSpaceOnUse" x1="7.6515" y1="46.6257" x2="55.043" y2="47.6062">
			<stop  offset="0" style="stop-color:#24AD91"/>
			<stop  offset="0.4623" style="stop-color:#24AB91"/>
			<stop  offset="0.6372" style="stop-color:#23A493"/>
			<stop  offset="0.7634" style="stop-color:#229896"/>
			<stop  offset="0.8662" style="stop-color:#20879A"/>
			<stop  offset="0.9537" style="stop-color:#1E719F"/>
			<stop  offset="1" style="stop-color:#1D62A3"/>
		</linearGradient>
		<path class="st30" d="M15.9,48c1.4,0.3,2.6,0.4,3.6,0.1c1-0.3,1.8-0.9,2.3-1.9c-0.8,0-1.6,0.1-2.4,0.3S17.8,47,17,47.4
			c0.6-0.4,1.3-0.8,2.1-1s1.6-0.4,2.4-0.4c-1.3-0.8-2.4-0.6-3.3-0.1C17.3,46.4,16.5,47.3,15.9,48z"/>
		<linearGradient id="SVGID_32_" gradientUnits="userSpaceOnUse" x1="7.7339" y1="42.6406" x2="55.1255" y2="43.6211">
			<stop  offset="0" style="stop-color:#24AD91"/>
			<stop  offset="0.4623" style="stop-color:#24AB91"/>
			<stop  offset="0.6372" style="stop-color:#23A493"/>
			<stop  offset="0.7634" style="stop-color:#229896"/>
			<stop  offset="0.8662" style="stop-color:#20879A"/>
			<stop  offset="0.9537" style="stop-color:#1E719F"/>
			<stop  offset="1" style="stop-color:#1D62A3"/>
		</linearGradient>
		<path class="st31" d="M21.3,41.7c-1.6-1.3-3.1-1.1-4.3-0.4s-2.4,2-3.3,3c1.8,0.6,3.3,0.8,4.7,0.5c1.3-0.3,2.4-1.2,3.2-2.7
			c-1.1-0.1-2.1,0-3.2,0.2s-2.1,0.6-3.2,1.2c0.8-0.6,1.8-1.1,2.9-1.4C19.1,41.8,20.2,41.7,21.3,41.7z"/>
		<linearGradient id="SVGID_33_" gradientUnits="userSpaceOnUse" x1="7.5413" y1="51.9498" x2="54.9329" y2="52.9303">
			<stop  offset="0" style="stop-color:#24AD91"/>
			<stop  offset="0.4623" style="stop-color:#24AB91"/>
			<stop  offset="0.6372" style="stop-color:#23A493"/>
			<stop  offset="0.7634" style="stop-color:#229896"/>
			<stop  offset="0.8662" style="stop-color:#20879A"/>
			<stop  offset="0.9537" style="stop-color:#1E719F"/>
			<stop  offset="1" style="stop-color:#1D62A3"/>
		</linearGradient>
		<path class="st32" d="M17.2,50.6c1,0.2,2.1,0.6,3,1.1c1,0.6,1.8,1.3,2.5,2.1c-0.2-2.1-1.3-3-2.7-3.5c-1.4-0.4-3.1-0.3-4.5-0.4
			c0.8,1.7,1.7,3,2.9,3.7c1.1,0.7,2.5,1,4.2,0.5c-0.7-0.8-1.5-1.5-2.4-2.1C19.3,51.4,18.3,51,17.2,50.6z"/>
		<linearGradient id="SVGID_34_" gradientUnits="userSpaceOnUse" x1="7.8644" y1="36.3343" x2="55.256" y2="37.3148">
			<stop  offset="0" style="stop-color:#24AD91"/>
			<stop  offset="0.4623" style="stop-color:#24AB91"/>
			<stop  offset="0.6372" style="stop-color:#23A493"/>
			<stop  offset="0.7634" style="stop-color:#229896"/>
			<stop  offset="0.8662" style="stop-color:#20879A"/>
			<stop  offset="0.9537" style="stop-color:#1E719F"/>
			<stop  offset="1" style="stop-color:#1D62A3"/>
		</linearGradient>
		<path class="st33" d="M47,39.9c-0.2-1.2-0.4-2.6-0.9-3.8c-0.6-1.1-1.5-2-3.3-1.8c0.8,0.5,1.5,1.1,2.1,1.9c0.6,0.7,1.1,1.6,1.4,2.4
			c-0.5-0.9-1-1.7-1.7-2.4c-0.6-0.7-1.3-1.3-2.1-1.7c-0.2,1.5,0.2,2.6,1,3.5C44.2,38.8,45.5,39.5,47,39.9z"/>
		<linearGradient id="SVGID_35_" gradientUnits="userSpaceOnUse" x1="8.135" y1="23.2569" x2="55.5265" y2="24.2374">
			<stop  offset="0" style="stop-color:#24AD91"/>
			<stop  offset="0.4623" style="stop-color:#24AB91"/>
			<stop  offset="0.6372" style="stop-color:#23A493"/>
			<stop  offset="0.7634" style="stop-color:#229896"/>
			<stop  offset="0.8662" style="stop-color:#20879A"/>
			<stop  offset="0.9537" style="stop-color:#1E719F"/>
			<stop  offset="1" style="stop-color:#1D62A3"/>
		</linearGradient>
		<path class="st34" d="M52,22.9c0.8,0.9,1.7,2,2.8,2.6s2.3,0.8,3.7-0.3c-0.9,0-1.9-0.1-2.8-0.4c-0.9-0.3-1.8-0.7-2.4-1.2
			c0.9,0.5,1.8,0.9,2.7,1.1c0.9,0.2,1.8,0.3,2.7,0.2c-0.7-1.3-1.6-2-2.7-2.3C54.9,22.3,53.5,22.5,52,22.9z"/>
	</g>
	<path class="st35" d="M63.6,38.6c-0.6-0.5-1.4-1-1.9-1.1c-0.5-0.1-1.1,0-1.6,0.1c-0.5,0.1-1,0.2-1.3,0.2c-0.3,0-0.7-0.3-1.4-0.6
		c-0.6-0.4-1.3-0.9-2.2-1.3c-0.8-0.5-2-1-3.1-1.5c-1-0.5-1.9-0.8-1.9-0.8s0.5-1,1.1-2c0.6-1,1.3-2.1,1.7-2.4c0.4-0.3,1-0.4,1.9-0.6
		c0.9-0.2,2-0.4,3.2-1c1.2-0.5,1.7-1,1.9-1.8c0.2-0.8,0.3-1.9,0.7-3.5c0.2-0.7,0.3-1.2,0.5-1.6c0.1-0.4,0.2-0.7,0.3-0.9
		c-0.1-0.1-0.3-0.2-0.4-0.3c-0.1-0.1-0.3-0.2-0.4-0.3c-0.1,0.1-0.1,0.2-0.2,0.3c-0.1,0.1-0.1,0.3-0.2,0.4c-0.2,0.7-0.3,1.1-0.4,1.3
		c-0.1,0.2-0.1,0.2-0.1,0.2s-0.3,0.9-0.5,1.9c-0.3,1-0.6,2.1-0.7,2.3c-0.1,0.3-0.8,0.6-1.6,0.8c-0.9,0.3-1.9,0.5-2.9,0.6
		c-1,0.1-1.5,0.3-1.9,0.4c-0.4,0.2-0.6,0.4-0.8,0.6c-0.2,0.2-1,1.3-1.9,2.4c-0.8,1.1-1.6,2.1-1.6,2.1s-1-0.2-2.1-0.4
		c-1.2-0.2-2.5-0.4-3.3-0.4c-0.5,0-1.4,0.4-2.4,0.9c-1,0.5-2,1.1-2.8,1.6c-0.2-0.5-0.5-1.5-0.8-2.4c-0.3-0.9-0.5-1.7-0.5-1.9
		c0.1-0.2,0.4-0.5,1-0.9c0.6-0.4,1.6-0.8,2.8-1.3c1.2-0.5,2-0.7,2.6-1.1c0.6-0.4,1.2-1,2.1-2.3c0.6-0.9,0.9-1.8,1.1-2.6
		c0.2-0.8,0.3-1.5,0.4-2.1c0.1-0.5,0.3-0.9,0.7-1.2c0.3-0.3,0.8-0.5,1.3-0.7c0.4-0.2,0.9-0.3,1.5-0.5c0.6-0.2,1.2-0.4,1.8-0.6
		c0.6-0.2,1.1-0.4,1.6-0.6c0.5-0.2,0.8-0.5,1-0.8c-0.2-0.1-0.4-0.2-0.7-0.2c-0.2-0.1-0.5-0.2-0.7-0.2c-0.3,0.4-1.6,0.6-3.2,1
		c-1.6,0.4-3.4,1-4.4,2.2c-0.1,0.1-0.1,0.1-0.1,0.2c0,0.1-0.1,0.1-0.1,0.2c-0.6-0.2-1.5-0.6-2.3-1.1c-0.8-0.5-1.4-1.1-1.4-1.8
		c0-0.2,0-0.5,0-0.7c0-0.2,0-0.4,0-0.6c-0.2,0-0.4,0.1-0.7,0.1c-0.2,0-0.4,0.1-0.7,0.2C40,14.9,40,15.5,40,15.9
		c0,0.5,0.1,0.8,0.3,1.1c0.3,0.3,1,0.9,1.8,1.5c0.8,0.6,1.7,1.2,2.3,1.6c-0.1,0.6-0.2,1.1-0.3,1.6c-0.1,0.5-0.2,1-0.3,1.3
		c-0.2,0.5-0.5,1-1.2,1.4c-0.7,0.5-1.7,0.9-3.2,1.6c-0.1-0.3-0.3-0.6-0.5-0.9c-0.2-0.3-0.5-0.5-0.8-0.6c-0.7-0.3-1.8-0.4-2.7-0.5
		c-0.9-0.1-1.7-0.2-1.8-0.4c-0.1-0.2,0-0.6,0-1.1c0-0.6,0.1-1.3-0.1-2.1c-0.1-0.4-0.3-0.8-0.5-1.2c-0.2-0.4-0.5-0.8-0.8-1.2
		c0,0-0.1,0.1-0.1,0.1c0,0-0.1,0.1-0.1,0.1c0.3,0.6,0.5,1.1,0.7,1.5c0.2,0.4,0.3,0.7,0.3,0.8c0,0.1,0,0.9-0.1,1.7
		c-0.1,0.8-0.3,1.5-0.4,1.6c-0.2,0.1-0.8,0-1.4-0.1c-0.6-0.1-1.1-0.2-1.1-0.2s0.3,0.2,0.8,0.4c0.5,0.2,1.1,0.5,1.9,0.7
		c0.8,0.2,1.7,0.4,2.6,0.5c0.8,0.1,1.5,0.3,1.7,0.5c0.1,0.1,0.2,0.3,0.3,0.5c0.1,0.2,0.3,0.5,0.4,0.8c-1.1,0.4-1.9,0.8-2.4,1.3
		c-0.5,0.5-0.8,1.1-0.7,1.9c0,0.7,0.2,1.6,0.5,2.5c0.2,0.9,0.5,1.7,0.6,2.3c0,0.1,0,0.2-0.1,0.4c-0.1,0.2-0.2,0.4-0.5,0.7
		c-2.2,2.7-3.6,4-4.9,5.5c-1.2,1.4-2.3,2.9-4,5.7c-0.5-0.9-1-2-1.5-3.2c-0.8-1.9-1.6-4-1.9-5.4c-0.3-1.3-0.3-1.9,0-2.2
		c0.3-0.3,0.9-0.5,1.8-1c0.2-0.1,0.4-0.3,0.6-0.5c0.2-0.2,0.5-0.4,0.7-0.7c0.5-0.6,0.7-1,0.7-1.4s-0.2-0.8-0.5-1.5
		c-0.3-0.7-0.4-1.3-0.4-1.7c0-0.4,0-0.6,0-0.6s-0.1,0.4-0.2,0.9c-0.1,0.5-0.1,1.2,0.2,1.9c0.2,0.7,0.2,1.2-0.1,1.6
		c-0.2,0.4-0.6,0.8-0.9,1c-0.3,0.3-1,0.6-1.6,0.8c-0.6,0.2-1.2,0.4-1.2,0.4s-0.1-0.5-0.3-1c-0.2-0.5-0.4-1.2-0.6-1.5
		c-0.2-0.3-0.6-0.5-1.1-0.8c-0.4-0.2-0.9-0.5-1.1-0.9c-0.2-0.4-0.4-1.2-0.7-2c-0.2-0.8-0.4-1.5-0.4-1.5s0,0.7,0,1.5
		c0,0.8,0.1,1.7,0.3,2.1c0.2,0.4,0.6,0.9,1,1.2c0.4,0.3,0.8,0.6,1,0.9s0.3,0.8,0.3,1.5c0.1,0.7,0.2,1.6,0.3,2.5c0,0.3,0.1,0.7,0.2,1
		c-0.1-0.1-0.2-0.1-0.3-0.2c-0.7-0.4-1.3-0.6-1.9-0.8c-0.6-0.1-1.1-0.2-1.5-0.2c-0.4-0.1-0.6-0.2-0.8-0.5c-0.2-0.2-0.4-0.5-0.5-0.9
		c-0.1-0.3-0.2-0.6-0.4-1c-0.1-0.4-0.3-0.8-0.5-1.3c-0.1-0.4-0.3-0.8-0.4-1.1c-0.2-0.3-0.4-0.6-0.6-0.7c-0.1,0.2-0.1,0.3-0.2,0.5
		c-0.1,0.2-0.1,0.3-0.1,0.5c0.3,0.2,0.5,1.2,0.8,2.3c0.3,1.1,0.8,2.4,1.6,3.1c0,0,0.1,0.1,0.1,0.1c0,0,0.1,0.1,0.2,0.1
		c-0.2,0.4-0.4,1.1-0.7,1.6c-0.3,0.5-0.8,1-1.3,1c-0.2,0-0.3,0-0.5,0c-0.2,0-0.3,0-0.5,0c0,0.2,0.1,0.3,0.1,0.5
		c0,0.2,0.1,0.3,0.1,0.5c0.4,0,0.8,0.1,1.1,0c0.3,0,0.6-0.1,0.8-0.2c0.2-0.2,0.6-0.7,1-1.3c0.4-0.6,0.8-1.2,1.1-1.7
		c0.4,0.1,0.8,0.1,1.2,0.2c0.4,0.1,0.7,0.1,0.9,0.2c0.3,0.1,0.7,0.5,1.1,1c0.2,0.2,0.3,0.5,0.5,0.7c0.2,1.3,0.5,2.6,0.9,3.9
		c0.5,2,1.2,3.9,2.1,5.4c-1.5,3.1-2,5.8-2.1,7.7c-0.1,2.4,0.4,3.7,0.4,3.7l2-1.7l2-1.7c0.1-2,0-3.4,0.6-5.3c0.6-1.9,2-4.2,5.1-8.3
		c0.9,0.1,1.5,0.5,1.9,0.9c0.4,0.5,0.7,1.1,1,1.6c0.4,0.9,0.6,1.6,1,2.1c0.4,0.5,0.9,0.7,1.9,0.6c1-0.1,2,0,3,0.2
		c1,0.3,1.8,0.7,2.5,1.5c-0.7-1.6-2.1-2.2-3.3-2.5c-1.3-0.3-2.4-0.2-2.8-0.6c-0.4-0.4-0.6-1.5-1.1-2.7c-0.5-1.2-1.3-2.4-3.1-3.2
		c0.6-0.8,1.6-1.9,2.5-3c0.9-1.1,1.7-2,2-2.5c0.5-0.6,1.3-1.3,2.2-1.9c0.9-0.6,1.9-1.1,2.9-1.2c0.9-0.1,2.8,0.2,4.9,0.8
		c2.1,0.5,4.2,1.3,5.7,2c1.2,0.6,1.6,0.9,1.7,1.4c0,0.5-0.2,1-0.3,2c0,0.2,0,0.5,0,0.8c0,0.3,0.1,0.6,0.2,1c0.2,0.8,0.4,1.2,0.7,1.4
		c0.3,0.2,0.8,0.4,1.5,0.6c0.7,0.2,1.3,0.5,1.6,0.8c0.3,0.2,0.5,0.4,0.5,0.4s-0.2-0.3-0.6-0.7s-0.9-0.8-1.6-1s-1-0.6-1.2-1.1
		c-0.2-0.4-0.2-0.9-0.3-1.3c0-0.4,0.2-1.1,0.4-1.8c0.2-0.6,0.4-1.2,0.4-1.2s0.4,0.2,1,0.4c0.5,0.2,1.1,0.4,1.5,0.5
		c0.4,0,0.8-0.2,1.3-0.4c0.5-0.2,0.9-0.4,1.3-0.3c0.4,0.1,1.2,0.4,2,0.7c0.7,0.3,1.4,0.6,1.4,0.6S64.3,39.1,63.6,38.6z"/>
</g>
<g>
	<path class="st35" d="M100,40.1c0-3.6,2.8-6.3,6.6-6.3c3.8,0,6.6,2.6,6.6,6.3c0,3.6-2.8,6.3-6.6,6.3C102.8,46.4,100,43.7,100,40.1z
		 M110.5,40.1c0-2.3-1.6-3.9-3.8-3.9s-3.8,1.6-3.8,3.9c0,2.3,1.6,3.9,3.8,3.9S110.5,42.4,110.5,40.1z"/>
	<path class="st35" d="M123.2,43.6h-5.6l-1.1,2.6h-2.9l5.4-12.1h2.8l5.4,12.1h-2.9L123.2,43.6z M122.3,41.5l-1.9-4.6l-1.9,4.6H122.3
		z"/>
	<path class="st35" d="M132.9,41.4l-1.6,1.7v3.1h-2.8V34.1h2.8v5.7l5.4-5.7h3.1l-5,5.4l5.3,6.7h-3.3L132.9,41.4z"/>
	<path class="st35" d="M144.7,36.4h-3.9v-2.3h10.6v2.3h-3.9v9.8h-2.8V36.4z"/>
	<path class="st35" d="M160.6,46.2l-2.3-3.4h-0.1h-2.4v3.4h-2.8V34.1h5.2c3.2,0,5.3,1.7,5.3,4.4c0,1.8-0.9,3.1-2.5,3.8l2.7,3.9
		H160.6z M158,36.4h-2.3v4.2h2.3c1.7,0,2.6-0.8,2.6-2.1C160.6,37.2,159.7,36.4,158,36.4z"/>
	<path class="st35" d="M175,44v2.2h-9.4V34.1h9.2v2.2h-6.4V39h5.6v2.2h-5.6V44H175z"/>
	<path class="st35" d="M186.6,44v2.2h-9.4V34.1h9.2v2.2H180V39h5.6v2.2H180V44H186.6z"/>
	<path class="st35" d="M100.3,58.1c0-3.5,2.7-6,6.3-6c2,0,3.7,0.7,4.8,2.1l-1.7,1.6c-0.8-0.9-1.8-1.4-2.9-1.4
		c-2.2,0-3.7,1.5-3.7,3.7s1.5,3.7,3.7,3.7c1.2,0,2.1-0.5,2.9-1.4l1.7,1.6c-1.1,1.3-2.8,2.1-4.8,2.1C103,64.1,100.3,61.6,100.3,58.1z
		"/>
	<path class="st35" d="M112.4,58.1c0-3.5,2.7-6,6.4-6c3.7,0,6.4,2.5,6.4,6c0,3.5-2.7,6-6.4,6C115.1,64.1,112.4,61.6,112.4,58.1z
		 M122.4,58.1c0-2.2-1.6-3.7-3.6-3.7s-3.6,1.5-3.6,3.7s1.6,3.7,3.6,3.7S122.4,60.3,122.4,58.1z"/>
	<path class="st35" d="M138.1,52.3v11.6h-2.2l-5.8-7.1v7.1h-2.7V52.3h2.2l5.8,7.1v-7.1H138.1z"/>
	<path class="st35" d="M151.7,52.3v11.6h-2.2l-5.8-7.1v7.1H141V52.3h2.2l5.8,7.1v-7.1H151.7z"/>
	<path class="st35" d="M163.6,61.8v2.2h-9V52.3h8.8v2.2h-6.1V57h5.4v2.1h-5.4v2.7H163.6z"/>
	<path class="st35" d="M165.2,58.1c0-3.5,2.7-6,6.3-6c2,0,3.7,0.7,4.8,2.1l-1.7,1.6c-0.8-0.9-1.8-1.4-2.9-1.4
		c-2.2,0-3.7,1.5-3.7,3.7s1.5,3.7,3.7,3.7c1.2,0,2.1-0.5,2.9-1.4l1.7,1.6c-1.1,1.3-2.8,2.1-4.8,2.1
		C167.9,64.1,165.2,61.6,165.2,58.1z"/>
	<path class="st35" d="M180.6,54.5h-3.7v-2.2H187v2.2h-3.7v9.4h-2.7V54.5z"/>
</g>
</svg>
